<svg width="26" height="46" viewBox="0 0 26 46" fill="none" xmlns="http://www.w3.org/2000/svg">
<path d="M5.91948 25.1647H7.68961C7.68961 25.1647 5.13164 23.1503 4.44167 21.25C3.17583 17.7638 7.29444 12.175 7.29444 12.175C7.29444 12.175 8.18342 12.3304 8.72083 12.175C10.4203 11.6836 10.1472 7.63753 10.1472 7.63753L13 3.10003L15.8528 7.63753C15.8528 7.63753 15.5797 11.6836 17.2791 12.175C17.8165 12.3304 18.7055 12.175 18.7055 12.175C18.7055 12.175 22.8241 17.7638 21.5583 21.25C20.8683 23.1503 18.3104 25.1647 18.3104 25.1647H20.0805V27.3H5.91948V25.1647Z" stroke="#0A2851" stroke-width="3"/>
<path d="M19.6 31.7H6.4C6.4 31.7 6.78422 33.1315 6.4 33.9C5.63155 35.4369 2 33.9 2 33.9V36.1C2 36.1 3.96171 37.1086 4.2 38.3C4.28425 38.7212 4.2 39.4 4.2 39.4H3.1V43.8H22.9V39.4H21.8C21.8 39.4 21.7157 38.7212 21.8 38.3C22.0383 37.1086 24 36.1 24 36.1V33.9C24 33.9 20.3684 35.4369 19.6 33.9C19.2158 33.1315 19.6 31.7 19.6 31.7Z" stroke="#FCD518" stroke-width="3"/>
</svg>
